<svg width="26" height="26" viewBox="0 0 26 26" fill="none" xmlns="http://www.w3.org/2000/svg">
<path d="M7.7037 20.5432C6.29136 20.5432 5.14864 21.6988 5.14864 23.1111C5.14864 24.5235 6.29136 25.679 7.7037 25.679C9.11605 25.679 10.2716 24.5235 10.2716 23.1111C10.2716 21.6988 9.11605 20.5432 7.7037 20.5432ZM0 0V2.5679H2.5679L7.19012 12.3131L5.45679 15.4588C5.25136 15.8183 5.1358 16.242 5.1358 16.6914C5.1358 18.1037 6.29136 19.2593 7.7037 19.2593H23.1111V16.6914H8.24296C8.06321 16.6914 7.92198 16.5501 7.92198 16.3704L7.96049 16.2163L9.11605 14.1235H18.6815C19.6444 14.1235 20.4919 13.597 20.9284 12.801L25.5249 4.46815C25.6277 4.2884 25.679 4.07012 25.679 3.85185C25.679 3.14568 25.1012 2.5679 24.3951 2.5679H5.40543L4.19852 0H0ZM20.5432 20.5432C19.1309 20.5432 17.9881 21.6988 17.9881 23.1111C17.9881 24.5235 19.1309 25.679 20.5432 25.679C21.9556 25.679 23.1111 24.5235 23.1111 23.1111C23.1111 21.6988 21.9556 20.5432 20.5432 20.5432Z" fill="black" fill-opacity="0.87"/>
</svg>
