<svg width="24" height="24" viewBox="0 0 24 24" fill="none" xmlns="http://www.w3.org/2000/svg">
<path d="M17.0208 14.6667H16.0004L15.6388 14.3067C16.9046 12.7867 17.6667 10.8133 17.6667 8.66667C17.6667 3.88 13.9079 0 9.27083 0C4.63375 0 0.875 3.88 0.875 8.66667C0.875 13.4533 4.63375 17.3333 9.27083 17.3333C11.3504 17.3333 13.2621 16.5467 14.7346 15.24L15.0833 15.6133V16.6667L21.5417 23.32L23.4663 21.3333L17.0208 14.6667ZM9.27083 14.6667C6.05458 14.6667 3.45833 11.9867 3.45833 8.66667C3.45833 5.34667 6.05458 2.66667 9.27083 2.66667C12.4871 2.66667 15.0833 5.34667 15.0833 8.66667C15.0833 11.9867 12.4871 14.6667 9.27083 14.6667Z" fill="white"/>
</svg>
