<svg width="20" height="20" viewBox="0 0 20 20" fill="none" xmlns="http://www.w3.org/2000/svg">
<path d="M9.62963 0C4.31407 0 0 4.48 0 10C0 15.52 4.31407 20 9.62963 20C14.9452 20 19.2593 15.52 19.2593 10C19.2593 4.48 14.9452 0 9.62963 0ZM9.62963 3C11.2281 3 12.5185 4.34 12.5185 6C12.5185 7.66 11.2281 9 9.62963 9C8.03111 9 6.74074 7.66 6.74074 6C6.74074 4.34 8.03111 3 9.62963 3ZM9.62963 17.2C7.22222 17.2 5.09407 15.92 3.85185 13.98C3.88074 11.99 7.7037 10.9 9.62963 10.9C11.5459 10.9 15.3785 11.99 15.4074 13.98C14.1652 15.92 12.037 17.2 9.62963 17.2Z" fill="white"/>
</svg>
