<svg width="27" height="24" viewBox="0 0 27 24" fill="none" xmlns="http://www.w3.org/2000/svg">
<path d="M19.3855 0C17.1097 0 14.9255 1.0594 13.4999 2.73352C12.0743 1.0594 9.89011 0 7.61436 0C3.58602 0 0.420898 3.16512 0.420898 7.19346C0.420898 12.1373 4.86777 16.1657 11.6035 22.2866L13.4999 24L15.3964 22.2736C22.1321 16.1657 26.5789 12.1373 26.5789 7.19346C26.5789 3.16512 23.4138 0 19.3855 0ZM13.6307 20.3379L13.4999 20.4687L13.3691 20.3379C7.14351 14.7008 3.0367 10.9733 3.0367 7.19346C3.0367 4.57766 4.99856 2.6158 7.61436 2.6158C9.62853 2.6158 11.5904 3.91063 12.2836 5.70245H14.7293C15.4095 3.91063 17.3713 2.6158 19.3855 2.6158C22.0013 2.6158 23.9631 4.57766 23.9631 7.19346C23.9631 10.9733 19.8563 14.7008 13.6307 20.3379Z" fill="black" fill-opacity="0.87"/>
</svg>
