<svg width="24" height="25" viewBox="0 0 24 25" fill="none" xmlns="http://www.w3.org/2000/svg">
<path d="M12 0.0384521C5.376 0.0384521 0 5.62122 0 12.5C0 19.3788 5.376 24.9615 12 24.9615C18.624 24.9615 24 19.3788 24 12.5C24 5.62122 18.624 0.0384521 12 0.0384521ZM12 3.77691C13.992 3.77691 15.6 5.44676 15.6 7.51537C15.6 9.58399 13.992 11.2538 12 11.2538C10.008 11.2538 8.4 9.58399 8.4 7.51537C8.4 5.44676 10.008 3.77691 12 3.77691ZM12 21.4723C9 21.4723 6.348 19.8772 4.8 17.4597C4.836 14.9798 9.6 13.6215 12 13.6215C14.388 13.6215 19.164 14.9798 19.2 17.4597C17.652 19.8772 15 21.4723 12 21.4723Z" fill="black" fill-opacity="0.87"/>
</svg>
