<svg width="33" height="39" viewBox="0 0 33 39" fill="none" xmlns="http://www.w3.org/2000/svg">
<path d="M29.0417 9.74984H25.4583C25.4583 4.80484 21.445 0.791504 16.5 0.791504C11.555 0.791504 7.54167 4.80484 7.54167 9.74984H3.95833C1.9875 9.74984 0.392917 11.3623 0.392917 13.3332L0.375 34.8332C0.375 36.804 1.9875 38.4165 3.95833 38.4165H29.0417C31.0125 38.4165 32.625 36.804 32.625 34.8332V13.3332C32.625 11.3623 31.0125 9.74984 29.0417 9.74984ZM16.5 4.37484C19.4742 4.37484 21.875 6.77567 21.875 9.74984H11.125C11.125 6.77567 13.5258 4.37484 16.5 4.37484ZM16.5 22.2915C11.555 22.2915 7.54167 18.2782 7.54167 13.3332H11.125C11.125 16.3073 13.5258 18.7082 16.5 18.7082C19.4742 18.7082 21.875 16.3073 21.875 13.3332H25.4583C25.4583 18.2782 21.445 22.2915 16.5 22.2915Z" fill="black" fill-opacity="0.87"/>
</svg>
