<svg width="390" height="42" viewBox="0 0 390 42" fill="none" xmlns="http://www.w3.org/2000/svg">
<path d="M0 41.16V0.839999H6.748V34.832H24.556V41.16H0Z" fill="#F97316"/>
<path d="M47.4976 42C43.4656 42 40.0123 41.1227 37.1376 39.368C34.263 37.5947 32.051 35.1307 30.5016 31.976C28.971 28.8213 28.2056 25.1627 28.2056 21C28.2056 16.8373 28.971 13.1787 30.5016 10.024C32.051 6.86933 34.263 4.41467 37.1376 2.66C40.0123 0.886666 43.4656 0 47.4976 0C51.5296 0 54.983 0.886666 57.8576 2.66C60.751 4.41467 62.963 6.86933 64.4936 10.024C66.043 13.1787 66.8176 16.8373 66.8176 21C66.8176 25.1627 66.043 28.8213 64.4936 31.976C62.963 35.1307 60.751 37.5947 57.8576 39.368C54.983 41.1227 51.5296 42 47.4976 42ZM47.4976 35.644C50.2043 35.6627 52.4536 35.0653 54.2456 33.852C56.0563 32.6387 57.4096 30.9307 58.3056 28.728C59.2203 26.5253 59.6776 23.9493 59.6776 21C59.6776 18.0507 59.2203 15.4933 58.3056 13.328C57.4096 11.144 56.0563 9.44533 54.2456 8.232C52.4536 7.01867 50.2043 6.39333 47.4976 6.356C44.791 6.33733 42.5416 6.93467 40.7496 8.148C38.9576 9.36133 37.6043 11.0693 36.6896 13.272C35.7936 15.4747 35.3456 18.0507 35.3456 21C35.3456 23.9493 35.7936 26.516 36.6896 28.7C37.5856 30.8653 38.9296 32.5547 40.7216 33.768C42.5323 34.9813 44.791 35.6067 47.4976 35.644Z" fill="#F97316"/>
<path d="M91.2629 42C88.6496 42 86.1949 41.5427 83.8989 40.628C81.6216 39.6947 79.6149 38.332 77.8789 36.54C76.1616 34.748 74.8176 32.5547 73.8469 29.96C72.8763 27.3467 72.3909 24.36 72.3909 21C72.3909 16.5947 73.2123 12.8333 74.8549 9.716C76.4976 6.58 78.7469 4.18133 81.6029 2.52C84.4589 0.839999 87.6789 0 91.2629 0C96.2283 0 100.158 1.15733 103.051 3.472C105.963 5.768 107.932 8.99733 108.959 13.16L102.071 14.252C101.306 11.8627 100.055 9.95866 98.3189 8.54C96.5829 7.10267 94.3709 6.384 91.6829 6.384C88.9763 6.34666 86.7269 6.93467 84.9349 8.148C83.1429 9.36133 81.7896 11.0693 80.8749 13.272C79.9789 15.4747 79.5309 18.0507 79.5309 21C79.5309 23.9493 79.9789 26.516 80.8749 28.7C81.7709 30.8653 83.1149 32.5547 84.9069 33.768C86.7176 34.9813 88.9763 35.6067 91.6829 35.644C93.7176 35.6627 95.5003 35.2987 97.0309 34.552C98.5616 33.7867 99.8123 32.6387 100.783 31.108C101.754 29.5587 102.407 27.6267 102.743 25.312H95.6309V20.02H109.911C109.948 20.3187 109.976 20.7573 109.995 21.336C110.014 21.9147 110.023 22.26 110.023 22.372C110.023 26.18 109.267 29.568 107.755 32.536C106.262 35.4853 104.115 37.8 101.315 39.48C98.5149 41.16 95.1643 42 91.2629 42Z" fill="#F97316"/>
<path d="M134.939 42C130.907 42 127.453 41.1227 124.579 39.368C121.704 37.5947 119.492 35.1307 117.943 31.976C116.412 28.8213 115.647 25.1627 115.647 21C115.647 16.8373 116.412 13.1787 117.943 10.024C119.492 6.86933 121.704 4.41467 124.579 2.66C127.453 0.886666 130.907 0 134.939 0C138.971 0 142.424 0.886666 145.299 2.66C148.192 4.41467 150.404 6.86933 151.935 10.024C153.484 13.1787 154.259 16.8373 154.259 21C154.259 25.1627 153.484 28.8213 151.935 31.976C150.404 35.1307 148.192 37.5947 145.299 39.368C142.424 41.1227 138.971 42 134.939 42ZM134.939 35.644C137.645 35.6627 139.895 35.0653 141.687 33.852C143.497 32.6387 144.851 30.9307 145.747 28.728C146.661 26.5253 147.119 23.9493 147.119 21C147.119 18.0507 146.661 15.4933 145.747 13.328C144.851 11.144 143.497 9.44533 141.687 8.232C139.895 7.01867 137.645 6.39333 134.939 6.356C132.232 6.33733 129.983 6.93467 128.191 8.148C126.399 9.36133 125.045 11.0693 124.131 13.272C123.235 15.4747 122.787 18.0507 122.787 21C122.787 23.9493 123.235 26.516 124.131 28.7C125.027 30.8653 126.371 32.5547 128.163 33.768C129.973 34.9813 132.232 35.6067 134.939 35.644Z" fill="#F97316"/>
<path d="M170.666 41.16V7.168H157.618V0.839999H190.462V7.168H177.414V41.16H170.666Z" fill="#F97316"/>
<path d="M197.739 41.16V0.839999H204.487V41.16H197.739Z" fill="#F97316"/>
<path d="M215.114 41.16V0.839999H231.774C232.166 0.839999 232.67 0.858666 233.286 0.895998C233.902 0.914666 234.472 0.970666 234.994 1.064C237.328 1.41867 239.25 2.19333 240.762 3.388C242.293 4.58266 243.422 6.09467 244.15 7.924C244.897 9.73467 245.27 11.7507 245.27 13.972C245.27 16.1747 244.897 18.1907 244.15 20.02C243.404 21.8307 242.265 23.3333 240.734 24.528C239.222 25.7227 237.309 26.4973 234.994 26.852C234.472 26.9267 233.893 26.9827 233.258 27.02C232.642 27.0573 232.148 27.076 231.774 27.076H221.862V41.16H215.114ZM221.862 20.776H231.494C231.868 20.776 232.288 20.7573 232.754 20.72C233.221 20.6827 233.65 20.608 234.042 20.496C235.162 20.216 236.04 19.7213 236.674 19.012C237.328 18.3027 237.785 17.5 238.046 16.604C238.326 15.708 238.466 14.8307 238.466 13.972C238.466 13.1133 238.326 12.236 238.046 11.34C237.785 10.4253 237.328 9.61333 236.674 8.904C236.04 8.19467 235.162 7.7 234.042 7.42C233.65 7.308 233.221 7.24267 232.754 7.224C232.288 7.18667 231.868 7.168 231.494 7.168H221.862V20.776Z" fill="#F97316"/>
<path d="M270.172 42C266.14 42 262.687 41.1227 259.812 39.368C256.937 37.5947 254.725 35.1307 253.176 31.976C251.645 28.8213 250.88 25.1627 250.88 21C250.88 16.8373 251.645 13.1787 253.176 10.024C254.725 6.86933 256.937 4.41467 259.812 2.66C262.687 0.886666 266.14 0 270.172 0C274.82 0 278.693 1.16667 281.792 3.5C284.891 5.81467 287.065 8.94133 288.316 12.88L281.512 14.756C280.728 12.124 279.393 10.0707 277.508 8.596C275.623 7.10267 273.177 6.356 270.172 6.356C267.465 6.356 265.207 6.96267 263.396 8.176C261.604 9.38933 260.251 11.0973 259.336 13.3C258.44 15.484 257.983 18.0507 257.964 21C257.964 23.9493 258.412 26.5253 259.308 28.728C260.223 30.912 261.585 32.6107 263.396 33.824C265.207 35.0373 267.465 35.644 270.172 35.644C273.177 35.644 275.623 34.8973 277.508 33.404C279.393 31.9107 280.728 29.8573 281.512 27.244L288.316 29.12C287.065 33.0587 284.891 36.1947 281.792 38.528C278.693 40.8427 274.82 42 270.172 42Z" fill="#F97316"/>
<path d="M296.704 41.16V0.839999H303.452V17.808H322.548V0.839999H329.268V41.16H322.548V24.136H303.452V41.16H296.704Z" fill="#F97316"/>
<path d="M339.918 41.16V0.839999H346.666V41.16H339.918Z" fill="#F97316"/>
<path d="M357.293 41.16V0.839999H364.041V19.544L380.141 0.839999H388.429L371.097 20.608L389.605 41.16H381.037L364.041 22.344V41.16H357.293Z" fill="#F97316"/>
</svg>
